<svg width="46" height="46" viewBox="0 0 46 46" fill="none" xmlns="http://www.w3.org/2000/svg">
<rect width="46" height="46" rx="4" fill="#E6F2F2"/>
<path fill-rule="evenodd" clip-rule="evenodd" d="M22.8625 13H23.1377C23.9331 12.9996 24.5237 12.9993 25.0354 13.1364C26.4157 13.5063 27.4939 14.5845 27.8638 15.9648C27.9462 16.2723 27.9789 16.6082 27.9919 17H29.8385C30.3657 17 30.8205 17 31.195 17.0306C31.5904 17.0629 31.9836 17.1342 32.362 17.327C32.9265 17.6146 33.3854 18.0735 33.673 18.638C33.8658 19.0164 33.9371 19.4096 33.9694 19.805C34 20.1795 34 20.6343 34 21.1614V28.8386C34 29.3657 34 29.8205 33.9694 30.195C33.9371 30.5904 33.8658 30.9836 33.673 31.362C33.3854 31.9265 32.9265 32.3854 32.362 32.673C31.9836 32.8658 31.5904 32.9371 31.195 32.9694C30.8205 33 30.3658 33 29.8387 33H16.1615C15.6344 33 15.1795 33 14.805 32.9694C14.4096 32.9371 14.0164 32.8658 13.638 32.673C13.0735 32.3854 12.6146 31.9265 12.327 31.362C12.1342 30.9836 12.0629 30.5904 12.0306 30.195C12 29.8205 12 29.3657 12 28.8386V21.1615C12 20.6343 12 20.1795 12.0306 19.805C12.0629 19.4096 12.1342 19.0164 12.327 18.638C12.6146 18.0735 13.0735 17.6146 13.638 17.327C14.0164 17.1342 14.4096 17.0629 14.805 17.0306C15.1795 17 15.6343 17 16.1614 17H18.0083C18.0213 16.6082 18.054 16.2723 18.1364 15.9648C18.5063 14.5845 19.5845 13.5063 20.9648 13.1364C21.4765 12.9993 22.0671 12.9996 22.8625 13ZM20.01 17C20.0191 16.7425 20.0364 16.6012 20.0682 16.4825C20.2532 15.7923 20.7923 15.2532 21.4825 15.0682C21.7047 15.0087 22.0057 15.0001 23.0001 15.0001C23.9945 15.0001 24.2955 15.0087 24.5177 15.0682C25.2079 15.2532 25.747 15.7923 25.9319 16.4825C25.9638 16.6012 25.981 16.7425 25.9902 17H20.01ZM19 20C19.5523 20 20 20.4477 20 21V29C20 29.5523 19.5523 30 19 30C18.4477 30 18 29.5523 18 29V21C18 20.4477 18.4477 20 19 20ZM28 21C28 20.4477 27.5523 20 27 20C26.4477 20 26 20.4477 26 21V29C26 29.5523 26.4477 30 27 30C27.5523 30 28 29.5523 28 29V21Z" fill="#077F7F"/>
</svg>
