<svg width="46" height="46" viewBox="0 0 46 46" fill="none" xmlns="http://www.w3.org/2000/svg">
<rect width="46" height="46" rx="4" fill="#FEF9EF"/>
<path d="M29.5716 21.7597C29.6601 21.8501 29.7044 21.8953 29.7065 21.8974C29.9039 22.0941 30.0271 22.1147 30.2777 21.9931C30.8551 21.7131 31.426 21.419 31.9999 21.1321V21.1181L33.4472 20.3945C33.786 20.2251 34 19.8788 34 19.5001C34 19.1213 33.786 18.775 33.4472 18.6056L23.7794 13.7716C23.6861 13.7239 23.493 13.6254 23.2766 13.5848C23.0938 13.5505 22.9062 13.5505 22.7234 13.5848C22.507 13.6254 22.3139 13.7239 22.2206 13.7716L12.5528 18.6056C12.214 18.775 12 19.1213 12 19.5001C12 19.8788 12.214 20.2251 12.5528 20.3945L22.2845 25.2743C22.5468 25.4054 22.678 25.471 22.8156 25.4968C22.9375 25.5197 23.0625 25.5197 23.1844 25.4968C23.322 25.471 23.4532 25.4054 23.7155 25.2743L26.5733 23.8454C27.0327 23.6157 27.2624 23.5008 27.3363 23.3453C27.4007 23.2099 27.4008 23.0527 27.3368 22.9172C27.2633 22.7614 27.0339 22.646 26.5751 22.4152L23.5528 20.8946C23.0588 20.6477 22.8586 20.047 23.1055 19.553C23.3525 19.059 23.9532 18.8588 24.4472 19.1058L29.0364 21.4001C29.1504 21.4557 29.3869 21.5711 29.5716 21.7597Z" fill="#F88634"/>
<path d="M27.4346 25.6508C27.6944 25.5209 28 25.7098 28 26.0002C28 26.5525 28.4477 27.0002 29 27.0002C29.5523 27.0002 30 26.5525 30 26.0002V24.8625C30 24.6831 30 24.5933 30.0273 24.5141C30.0515 24.444 30.0909 24.3802 30.1428 24.3273C30.2014 24.2674 30.2817 24.2273 30.4422 24.147L30.8423 23.947C31.2256 23.7553 31.4173 23.6594 31.5731 23.6825C31.7092 23.7026 31.8309 23.7778 31.9098 23.8905C32 24.0196 32 24.2339 32.0001 24.6625L32.0002 27.3852C32.0013 27.6708 32.0027 28.0297 31.8839 28.363C31.7813 28.6508 31.6141 28.9114 31.3952 29.1246C31.1417 29.3714 30.8149 29.5197 30.5547 29.6377L24.032 32.6271C23.8422 32.7148 23.6033 32.8251 23.3421 32.8705C23.1157 32.9098 22.8842 32.9098 22.6578 32.8705C22.3966 32.8251 22.1577 32.7148 21.9679 32.6271L15.4452 29.6377C15.185 29.5197 14.8582 29.3714 14.6047 29.1246C14.3857 28.9114 14.2186 28.6508 14.116 28.363C13.9972 28.0297 13.9986 27.6708 13.9997 27.3851L13.9998 24.6624C13.9998 24.2338 13.9998 24.0195 14.0901 23.8905C14.1689 23.7778 14.2907 23.7025 14.4268 23.6824C14.5826 23.6594 14.7742 23.7552 15.1576 23.9469L22.195 27.4656L22.2206 27.4786C22.3139 27.5262 22.507 27.6247 22.7234 27.6653C22.9062 27.6996 23.0938 27.6996 23.2766 27.6653C23.493 27.6247 23.6861 27.5262 23.7794 27.4786L23.805 27.4656L27.4346 25.6508Z" fill="#F88634"/>
</svg>
